<svg version="1" xmlns="http://www.w3.org/2000/svg" width="546.667" height="546.667" viewBox="0 0 410.000000 410.000000"><path d="M99.2 64.6c-7.1 1.9-15.4 7.5-19.7 13.4-12.3 16.8-16.9 41.2-16.9 90.5 0 43.7 4.6 82.4 14.5 121.8 14.2 56.7 33.8 69.5 81.1 53.1 27.5-9.5 81.6-41.9 116.8-69.9 23.2-18.4 48.4-43.5 59.4-58.8 10.8-15.1 16.4-29.9 15.2-40.1-.9-8.3-5.8-17.1-13.9-25-10.3-10.1-20.3-16.6-41-26.6-21.9-10.5-40.2-18.2-62.3-26-14-5-40.9-13.8-47.9-15.6-1.1-.3 3.9 2.6 11.2 6.4 24.5 12.8 46.9 29.6 59.2 44.3 20.4 24.2 30.1 51.8 27.2 77.6-2.9 26.2-12.3 45.7-31 64.3-17.9 17.8-34.5 25.7-55.7 26.7-13 .7-18.7-.4-29.1-5.3-31.2-14.8-41.1-55.2-22.7-93.3 5.3-11.1 9.4-17 23.9-34.7 12.3-15 17.5-24.4 17.5-31.3-.1-5.6-1.9-10.9-5.5-15.9-1.6-2.2.1-.8 4.3 3.4 13.4 13.7 16.9 27.8 11.6 46.2-3.2 10.7-1 19.4 6 24.6 4.2 3.2 15.6 2.9 21.5-.4 9.4-5.3 14.4-15.7 14.4-30 0-10.3-1.9-17.5-7.9-29C214 105.1 180 79.4 142 69.1c-24.8-6.7-32-7.5-42.8-4.5z"/></svg>