<svg width="36" height="36" viewBox="0 0 40 40"><path d="M40 20.0303C40.007 15.4018 38.4084 10.9141 35.4768 7.33234C32.5451 3.75059 28.4619 1.29655 23.9233 0.388604C19.3846 -0.519345 14.6716 0.17501 10.5876 2.35329C6.50369 4.53157 3.3017 8.05891 1.52755 12.3339C-0.246586 16.609 -0.483031 21.367 0.858531 25.7969C2.20009 30.2267 5.0366 34.0542 8.88447 36.6266C12.7323 39.199 17.3533 40.3572 21.9596 39.9037C26.5659 39.4502 30.8723 37.4131 34.1446 34.1396C37.8864 30.3966 39.992 25.3229 40 20.0303Z" fill="url(#paint0_linear_amazon-icon-circle-wcjecoxb3k)"></path><path fill-rule="evenodd" clip-rule="evenodd" d="M24.2588 0.0171965C24.2277 0.0252526 24.2022 0.0443457 24.2022 0.0595717C24.2022 0.0747978 24.1758 0.0956629 24.1435 0.105814C23.8951 0.184361 23.6642 0.761501 23.8092 0.941233C23.8254 0.961374 23.8488 1.02494 23.8612 1.08254C23.8735 1.14014 23.8951 1.18727 23.909 1.18727C23.9229 1.18727 23.9908 1.23198 24.0598 1.2866C24.2989 1.47568 25.1084 1.36692 25.1084 1.1457C25.1084 1.13168 25.1391 1.07891 25.1766 1.02848C25.2779 0.891849 25.2584 0.376177 25.1489 0.299885C25.1088 0.27193 25.0756 0.231812 25.0749 0.210624C25.0711 0.0849485 24.5098 -0.0481386 24.2588 0.0171965ZM3.50398 2.44467C3.43277 2.45828 3.27984 2.48696 3.16413 2.50839C2.9561 2.54682 2.44374 2.70343 2.33192 2.76264C2.30012 2.77948 2.17963 2.84006 2.06417 2.89718C1.94878 2.9543 1.8177 3.02761 1.77287 3.05999C1.49347 3.26212 1.43125 3.24222 1.39548 2.93939C1.36546 2.6849 1.33229 2.66959 0.809895 2.66959H0.379667L0.315582 2.77432C0.252791 2.8768 0.251416 2.94527 0.251254 5.91016L0.251173 8.94128L0.34196 9.02788C0.479679 9.15928 1.31618 9.16282 1.45714 9.03264L1.54582 8.95078V6.48908V4.02737L1.63669 3.963C1.6867 3.92755 1.78865 3.87422 1.86325 3.8445C1.93786 3.81477 1.99895 3.77868 1.99895 3.76426C1.99895 3.74992 2.04628 3.72792 2.10414 3.71552C2.16199 3.70311 2.26031 3.66758 2.32261 3.63665C2.38492 3.60571 2.50872 3.57011 2.59772 3.55762C2.68673 3.54513 2.82194 3.51428 2.89824 3.48898C3.41489 3.31771 4.26337 3.60885 4.26475 3.95793C4.26491 3.98483 4.2904 4.05041 4.32139 4.10358C4.37325 4.19244 4.37916 4.39263 4.39405 6.5752C4.40691 8.46218 4.41889 8.95876 4.45223 8.99203C4.53436 9.07388 5.49345 9.06583 5.5916 8.98253L5.67251 8.91389L5.68117 6.47683L5.68991 4.03978L5.77083 3.9651C5.81541 3.92393 5.89883 3.87438 5.95636 3.85481C6.0139 3.83531 6.09562 3.7927 6.1381 3.76007C6.18058 3.72744 6.239 3.70078 6.26805 3.70078C6.29702 3.70078 6.37284 3.67298 6.43636 3.63907C6.49996 3.60515 6.62351 3.56712 6.71098 3.55456C6.79853 3.54199 6.92104 3.51049 6.98334 3.48447C7.05479 3.45474 7.22221 3.43533 7.43647 3.4321C8.03444 3.42292 8.29822 3.60579 8.47494 4.15192L8.55311 4.3936L8.56929 6.68694C8.57819 7.94828 8.59761 8.99235 8.61234 9.0071C8.68281 9.07743 9.65291 9.05745 9.71942 8.9843C9.78351 8.91381 9.80584 4.47038 9.7454 3.83225C9.6576 2.9062 8.4891 2.20637 7.47677 2.47359C7.41009 2.49123 7.25603 2.5212 7.13433 2.54029C7.01264 2.55938 6.88155 2.59451 6.84304 2.61836C6.80452 2.6422 6.72547 2.6704 6.66745 2.68103C6.5354 2.7052 5.98015 2.97323 5.78579 3.10656C5.50324 3.30047 5.50113 3.30087 5.37774 3.18188C5.31737 3.12355 5.26794 3.06281 5.26794 3.04678C5.26794 3.00312 4.93764 2.70552 4.86336 2.68224C4.82776 2.67112 4.77621 2.64252 4.74886 2.61868C4.70371 2.57936 4.49924 2.51927 4.1513 2.44297C3.9974 2.40922 3.68466 2.41002 3.50398 2.44467ZM20.147 2.4901C20.0618 2.51459 19.9016 2.54504 19.791 2.55769C19.6804 2.57034 19.539 2.60675 19.4767 2.6385C19.4144 2.67024 19.276 2.73726 19.1692 2.78745C18.9696 2.88123 18.5748 3.22313 18.4905 3.37547C18.2735 3.76716 18.177 4.20775 18.243 4.50639C18.36 5.03632 18.5483 5.35429 18.9024 5.61958C18.9957 5.68951 19.0914 5.76491 19.1149 5.78715C19.1384 5.80938 19.1765 5.82759 19.1996 5.82759C19.2225 5.82759 19.2786 5.85675 19.3241 5.89236C19.3695 5.92789 19.4553 5.96616 19.5146 5.97727C19.5738 5.98847 19.6442 6.01594 19.6709 6.0385C19.6976 6.06098 19.7837 6.09642 19.8622 6.11721C19.9407 6.13807 20.0353 6.17425 20.0726 6.19761C20.1098 6.22105 20.1912 6.25078 20.2535 6.26375C20.3158 6.27672 20.4175 6.31442 20.4796 6.34745C20.5416 6.38056 20.6188 6.40763 20.6512 6.40763C20.6836 6.40763 20.7638 6.43542 20.8297 6.46942C20.8955 6.50342 20.9858 6.54789 21.0303 6.56827C21.5311 6.79755 21.7029 7.11375 21.5778 7.57577C21.5087 7.83115 21.234 8.14775 21.0816 8.14775C21.0435 8.14775 20.9763 8.17313 20.9323 8.20414C20.8619 8.25369 20.7663 8.26054 20.1402 8.26054C19.5533 8.26054 19.3959 8.25063 19.2451 8.20414C19.1445 8.17313 19.0247 8.14775 18.9789 8.14775C18.933 8.14775 18.7989 8.1115 18.6807 8.06719C18.4441 7.97857 18.2611 7.96568 18.174 8.0315C18.0278 8.14187 18.1522 8.85669 18.3175 8.85669C18.3381 8.85669 18.3779 8.87603 18.4061 8.89955C18.7229 9.16548 20.4845 9.37228 20.9589 9.19924C21.0354 9.17136 21.1736 9.13857 21.2661 9.12633C21.3586 9.11416 21.4781 9.07751 21.5316 9.04496C21.5852 9.01241 21.6509 8.98551 21.6776 8.9851C21.7285 8.98438 21.9807 8.82938 22.0688 8.74487C22.0969 8.71772 22.1314 8.69557 22.1453 8.69557C22.1921 8.69557 22.4227 8.43761 22.528 8.26763C22.9542 7.57947 22.8813 6.71852 22.3503 6.16957C22.192 6.00587 22.1421 5.97043 21.9123 5.85901C21.8366 5.82235 21.7747 5.77853 21.7747 5.76161C21.7747 5.74477 21.7478 5.73092 21.7148 5.73092C21.6818 5.73092 21.5864 5.69466 21.5027 5.65036C21.419 5.60605 21.3258 5.56931 21.2956 5.56875C21.2653 5.56826 21.1678 5.53209 21.0788 5.48851C20.9898 5.44492 20.8987 5.40916 20.8765 5.40899C20.8541 5.40883 20.7815 5.37967 20.715 5.34422C20.6487 5.30878 20.5722 5.27969 20.5453 5.27953C20.5183 5.27945 20.4525 5.25053 20.3991 5.21532C20.3457 5.18012 20.2763 5.1512 20.2448 5.15112C20.0842 5.15047 19.5344 4.76821 19.4912 4.62715C19.479 4.58727 19.4453 4.52782 19.4163 4.49495C19.201 4.25141 19.4573 3.70142 19.8847 3.4893L20.0755 3.39464L20.7552 3.39521C21.3229 3.39569 21.451 3.40447 21.5326 3.44862C21.5864 3.47762 21.7102 3.51621 21.8077 3.53417C21.9053 3.55222 22.0288 3.58976 22.0822 3.61756C22.3413 3.7525 22.3937 3.68837 22.3827 3.25052C22.3745 2.92457 22.3666 2.88211 22.3087 2.85029C22.2731 2.83063 22.2364 2.80461 22.2272 2.79245C22.1994 2.75595 22.0348 2.70182 21.9516 2.70182C21.9088 2.70182 21.8187 2.67435 21.7514 2.64067C21.6728 2.60144 21.524 2.57236 21.3348 2.55938C21.173 2.54827 20.991 2.5249 20.9303 2.50742C20.7351 2.45135 20.3142 2.44209 20.147 2.4901ZM28.9924 2.56889C28.8254 2.58243 28.6855 2.61199 28.6363 2.64413C28.5918 2.67322 28.5001 2.70713 28.4324 2.71946C28.3649 2.73171 28.2919 2.75934 28.2703 2.78085C28.2488 2.80228 28.1887 2.83047 28.1369 2.84336C28.0851 2.85633 28.0068 2.895 27.963 2.9294C27.9191 2.96372 27.8653 2.99184 27.8434 2.99184C27.7917 2.99184 27.1475 3.60998 27.1475 3.65969C27.1475 3.68047 27.1288 3.70915 27.1059 3.72333C27.068 3.74686 26.9819 3.9112 26.7952 4.31659C26.7575 4.39827 26.7267 4.49559 26.7267 4.53289C26.7267 4.57019 26.6955 4.67734 26.6572 4.77103C26.5238 5.09843 26.5374 6.83742 26.6756 7.10046C26.7035 7.15363 26.7264 7.23064 26.7266 7.27165C26.7267 7.34013 26.8502 7.64682 26.9235 7.76106C26.9406 7.78764 26.9779 7.86015 27.0063 7.92218C27.0801 8.0833 27.4643 8.53444 27.5276 8.53444C27.5445 8.53444 27.6005 8.5707 27.6522 8.61501C27.704 8.65923 27.7622 8.69549 27.7817 8.69557C27.8012 8.69557 27.8428 8.72376 27.874 8.75816C27.9054 8.79264 27.9722 8.82978 28.0225 8.84082C28.0728 8.85186 28.1305 8.88054 28.1504 8.90454C28.1705 8.92863 28.248 8.95852 28.3226 8.97093C28.3972 8.98333 28.5312 9.02216 28.6202 9.05737C28.7984 9.1277 30.2365 9.1484 30.4812 9.08411C31.1237 8.91542 31.2256 8.82165 31.2256 8.39983C31.2256 8.01249 31.0937 7.93185 30.7078 8.0833C30.6175 8.11875 30.4676 8.14807 30.3748 8.1484C30.282 8.14872 30.1187 8.16137 30.0119 8.17643C29.7511 8.21309 29.0046 8.14727 28.8953 8.07782C28.8508 8.04963 28.7747 8.0174 28.7262 8.00621C28.4935 7.95247 28.0328 7.49561 27.9753 7.26158C27.9623 7.20841 27.929 7.13993 27.9014 7.1094C27.8723 7.07725 27.8409 6.95528 27.8268 6.81938C27.8133 6.6904 27.7861 6.54402 27.7663 6.49415C27.7138 6.3626 27.7217 5.62989 27.7786 5.33335C27.8053 5.19438 27.8272 5.02504 27.8272 4.95689C27.8272 4.8387 27.9701 4.43114 28.0435 4.34011C28.0626 4.31634 28.0872 4.26736 28.0983 4.23127C28.1449 4.07933 28.5744 3.70666 28.7658 3.65187C28.8103 3.63915 28.8686 3.61006 28.8953 3.58718C29.0422 3.46151 30.6655 3.46239 30.8584 3.58823C31.0768 3.73074 31.2256 3.6004 31.2256 3.26655C31.2256 2.89009 31.0841 2.70182 30.8012 2.70182C30.7511 2.70182 30.6392 2.67394 30.5524 2.63995C30.3722 2.56921 29.4868 2.52885 28.9924 2.56889ZM11.574 2.65872C11.4468 2.68031 11.4519 2.57252 11.4487 5.30652C11.4459 7.68888 11.4531 7.98542 11.5159 8.06719C11.5295 8.08491 11.557 8.1604 11.577 8.23492C11.5971 8.30944 11.633 8.38984 11.6569 8.41368C11.6807 8.43745 11.7099 8.48732 11.7218 8.52454C11.7399 8.58125 11.9278 8.77001 12.1034 8.90793C12.6249 9.3175 14.2032 9.31661 14.7913 8.90656C14.8306 8.87909 14.8858 8.85669 14.914 8.85669C14.9422 8.85669 15.0146 8.82044 15.0749 8.77613C15.1352 8.73182 15.2055 8.69557 15.2311 8.69557C15.2567 8.69557 15.3016 8.67019 15.3308 8.63917C15.3601 8.60816 15.4604 8.54274 15.5538 8.49384L15.7235 8.40482L15.7552 8.48788C15.7727 8.53348 15.787 8.62 15.787 8.68002C15.787 8.85282 15.848 8.94966 15.9819 8.98962C16.1462 9.0386 16.7969 9.01475 16.8667 8.95715C16.9283 8.90615 16.9493 2.83055 16.8881 2.73404C16.8427 2.66234 15.8004 2.6443 15.706 2.71358C15.6425 2.76014 15.641 2.80792 15.6251 5.21581L15.6089 7.67051L15.3015 7.82414C14.8547 8.04729 14.7088 8.10876 14.5686 8.13236C14.5 8.14397 14.3845 8.1749 14.3121 8.20108C13.9886 8.31806 13.2961 8.21631 13.0388 8.01394C12.6781 7.73028 12.6698 7.66567 12.6488 4.98331C12.6349 3.20299 12.6225 2.72856 12.5893 2.69537C12.5472 2.65348 11.7704 2.62544 11.574 2.65872ZM24.0246 2.71269C23.9292 2.78351 23.8986 8.85081 23.9931 8.95481C24.0584 9.02667 24.921 9.05092 25.0458 8.98446C25.1362 8.93628 25.1452 2.80453 25.0549 2.72993C24.9734 2.66242 24.1119 2.648 24.0246 2.71269ZM29.2351 11.4686C29.0927 11.4819 28.8451 11.5159 28.6849 11.5441C28.5247 11.5724 28.3375 11.5956 28.269 11.5956C28.2005 11.5957 28.0986 11.6167 28.0424 11.6423C27.9863 11.668 27.8542 11.7042 27.7488 11.7228C27.6433 11.7415 27.5237 11.7786 27.4829 11.8051C27.4421 11.8318 27.3769 11.8536 27.338 11.8536C27.2235 11.8536 26.3824 12.2638 26.2475 12.3854C25.802 12.787 26.019 12.9506 26.7591 12.7712C27.4524 12.603 29.759 12.6145 30.0836 12.7877C30.1504 12.8234 30.2186 12.8525 30.2351 12.8525C30.2653 12.8525 30.4476 13.0418 30.4502 13.0758C30.451 13.0859 30.4648 13.1595 30.4808 13.2392C30.5222 13.4453 30.4589 14.1459 30.3812 14.3421C30.3472 14.4281 30.3194 14.5455 30.3194 14.6031C30.3194 14.6608 30.2899 14.7654 30.2538 14.8355C30.2178 14.9058 30.1792 15.0212 30.168 15.0921C30.1568 15.163 30.1208 15.2715 30.0879 15.3333C30.055 15.3951 30.0276 15.4749 30.027 15.5106C30.0266 15.5462 29.9902 15.648 29.9464 15.7366C29.9027 15.8252 29.8666 15.9267 29.8663 15.9622C29.8661 15.9976 29.8369 16.0701 29.8015 16.1233C29.7662 16.1765 29.737 16.249 29.7369 16.2844C29.7367 16.3199 29.7075 16.3963 29.672 16.4544C29.6364 16.5124 29.6073 16.5785 29.6073 16.6011C29.6073 16.6238 29.57 16.7169 29.5245 16.8079C29.4652 16.9264 29.4444 17.0129 29.4516 17.1124L29.4617 17.2512L29.6073 17.2606C29.7081 17.2671 29.7773 17.2522 29.8321 17.2123C29.9509 17.1256 30.424 16.6522 30.4977 16.5463C30.5332 16.4953 30.5917 16.4155 30.6278 16.369C30.6638 16.3225 30.7307 16.2264 30.7763 16.1555C30.9949 15.8157 31.0428 15.7348 31.1188 15.5755C31.1442 15.5223 31.1788 15.4571 31.1955 15.4305C31.2124 15.4039 31.2419 15.3459 31.2612 15.3016C31.2804 15.2573 31.3312 15.1536 31.3742 15.0713C31.4171 14.9889 31.4522 14.8982 31.4522 14.8698C31.4522 14.8413 31.4813 14.7638 31.5169 14.6977C31.5525 14.6316 31.5817 14.5481 31.5817 14.5121C31.5817 14.4761 31.6086 14.3962 31.6415 14.3344C31.6746 14.2726 31.7118 14.1437 31.7243 14.0478C31.7368 13.952 31.7683 13.8329 31.7941 13.7832C31.8199 13.7334 31.8561 13.5435 31.8743 13.3612C31.8926 13.1789 31.9247 12.979 31.9456 12.917C32.0974 12.4671 31.9134 11.8072 31.6161 11.735C31.5705 11.7239 31.4824 11.688 31.4203 11.6553C31.3583 11.6225 31.2563 11.5958 31.1938 11.5958C31.0764 11.5958 30.5921 11.5114 30.5458 11.4829C30.4996 11.4545 29.5025 11.4435 29.2351 11.4686ZM0.0747772 12.1225C-0.0946599 12.3437 0.000496724 12.503 0.602994 13.0064C0.703248 13.0901 0.792498 13.166 0.801399 13.175C0.884337 13.2587 1.69454 13.8837 1.72011 13.8837C1.72732 13.8837 1.78201 13.9292 1.84181 13.9848C1.90153 14.0405 1.98681 14.109 2.03131 14.1372C2.07582 14.1654 2.23684 14.2758 2.38904 14.3825C2.54133 14.4892 2.68859 14.591 2.71635 14.6088C2.88821 14.7184 3.18566 14.9171 3.2147 14.9416C3.23364 14.9575 3.30282 14.9959 3.36844 15.027C3.43407 15.058 3.48779 15.0962 3.48779 15.1119C3.48779 15.1277 3.5077 15.1405 3.53197 15.1405C3.55625 15.1405 3.61718 15.1726 3.66735 15.2119C3.7676 15.2904 3.89666 15.3662 4.07039 15.4485C4.13269 15.478 4.19095 15.5134 4.19985 15.5272C4.20875 15.5409 4.26701 15.5753 4.32932 15.6034C4.39162 15.6316 4.47173 15.6727 4.50733 15.6947C4.75655 15.8486 4.81861 15.8816 4.85867 15.8816C4.88359 15.8816 4.92146 15.9027 4.9429 15.9283C4.96434 15.954 5.0349 15.9924 5.09971 16.0137C5.16453 16.035 5.23686 16.0717 5.26041 16.0951C5.28396 16.1186 5.36083 16.1532 5.43122 16.172C5.50162 16.1909 5.55923 16.2197 5.55923 16.2361C5.55923 16.2524 5.61579 16.281 5.68489 16.2995C5.75408 16.3181 5.82787 16.354 5.84899 16.3793C5.87011 16.4045 5.93371 16.4353 5.99035 16.4475C6.04691 16.4597 6.13195 16.4969 6.17921 16.5301C6.22646 16.5633 6.28326 16.5906 6.30543 16.5906C6.34452 16.5906 6.5837 16.6955 6.82791 16.8197C6.89377 16.8532 6.96716 16.8806 6.99103 16.8806C7.0149 16.8806 7.08983 16.9088 7.15764 16.9432C7.22544 16.9776 7.32181 17.0146 7.37174 17.0256C7.42166 17.0365 7.51803 17.0736 7.58584 17.108C7.65365 17.1424 7.7357 17.1706 7.76831 17.1706C7.80083 17.1706 7.88151 17.1978 7.94753 17.2311C8.01356 17.2644 8.11835 17.3026 8.18041 17.3159C8.24247 17.3292 8.32258 17.3586 8.35842 17.3812C8.39427 17.4037 8.4891 17.4327 8.56913 17.4456C8.64915 17.4584 8.76543 17.4961 8.82757 17.5293C8.88971 17.5624 8.98503 17.5895 9.03933 17.5895C9.0937 17.5895 9.19307 17.6174 9.26023 17.6515C9.32731 17.6856 9.44326 17.7227 9.51786 17.734C9.59255 17.7454 9.72638 17.7815 9.81539 17.8144C9.9044 17.8472 10.0458 17.8822 10.1296 17.8921C10.2134 17.902 10.3695 17.9396 10.4765 17.9754C10.5835 18.0113 10.7222 18.0407 10.7847 18.0407C10.8472 18.0407 10.9532 18.0615 11.0204 18.087C11.0875 18.1124 11.2694 18.1491 11.4246 18.1686C11.5798 18.188 11.7618 18.223 11.8291 18.2463C11.8965 18.2697 12.0754 18.2981 12.2267 18.3095C12.378 18.3209 12.611 18.3532 12.7445 18.3813C12.878 18.4094 13.1839 18.4448 13.4242 18.4602C13.6645 18.4755 14.0869 18.5119 14.3628 18.5409C14.9305 18.6007 17.3431 18.5905 17.648 18.527C17.737 18.5084 18.024 18.4784 18.2857 18.4602C18.5475 18.442 18.8606 18.4065 18.9816 18.3814C19.1026 18.3561 19.3108 18.3258 19.4443 18.3138C19.5778 18.3019 19.7672 18.2728 19.8651 18.2491C19.963 18.2254 20.1669 18.1894 20.3182 18.1692C20.4695 18.1489 20.6443 18.1137 20.7066 18.0907C20.7689 18.0677 20.9034 18.0388 21.0054 18.0264C21.1076 18.0141 21.271 17.976 21.3688 17.9417C21.4666 17.9075 21.5943 17.8789 21.6525 17.8781C21.7109 17.8774 21.8168 17.8546 21.888 17.8276C21.9592 17.8005 22.1147 17.7585 22.2335 17.7344C22.3524 17.7101 22.4907 17.6696 22.541 17.6442C22.5913 17.6188 22.6902 17.5877 22.7607 17.5749C22.8314 17.5622 22.9299 17.5308 22.9797 17.5052C23.0295 17.4795 23.1319 17.4452 23.2073 17.4289C23.3835 17.3908 23.7418 17.2735 23.8461 17.2197C23.8906 17.1968 23.978 17.1671 24.0403 17.1538C24.1026 17.1406 24.2155 17.1027 24.2912 17.0696C24.3668 17.0366 24.4906 16.9824 24.5663 16.9494C24.6419 16.9163 24.7548 16.8784 24.8171 16.8652C24.8794 16.852 24.9523 16.8224 24.979 16.7995C25.0057 16.7765 25.0888 16.7415 25.1637 16.7216C25.2386 16.7017 25.308 16.6725 25.3178 16.6566C25.3277 16.6408 25.4084 16.6037 25.4972 16.5743C25.586 16.545 25.6587 16.5094 25.6587 16.4951C25.6587 16.4809 25.7222 16.4534 25.7998 16.434C25.8774 16.4145 25.9585 16.3774 25.98 16.3516C26.0016 16.3258 26.0608 16.2955 26.1118 16.2844C26.1628 16.2733 26.2217 16.2434 26.2428 16.2181C26.2639 16.1928 26.3377 16.157 26.4069 16.1384C26.476 16.1198 26.5325 16.0919 26.5325 16.0763C26.5325 16.0606 26.5872 16.0303 26.6539 16.0089C26.7207 15.9876 26.7977 15.9507 26.825 15.9271C26.8524 15.9035 26.9252 15.8614 26.9869 15.8336C27.0485 15.8059 27.1572 15.7468 27.2284 15.7024C27.2996 15.658 27.4027 15.6012 27.4576 15.5762C27.5123 15.5513 27.576 15.5083 27.5991 15.4807C27.6221 15.453 27.6573 15.4305 27.6774 15.4304C27.6975 15.4304 27.7991 15.3715 27.9033 15.2995C28.0075 15.2275 28.124 15.1547 28.1623 15.1377C28.2004 15.1207 28.29 15.0632 28.3612 15.0098C28.4324 14.9564 28.5433 14.878 28.6076 14.8356C29.1967 14.4474 29.2992 14.0526 28.8661 13.8408C28.7046 13.762 28.3624 13.8155 28.1508 13.9528C28.1063 13.9818 28.0153 14.0149 27.9486 14.0265C27.8818 14.0382 27.8272 14.0597 27.8272 14.0743C27.8272 14.089 27.758 14.1195 27.6734 14.1422C27.5889 14.1649 27.4833 14.2027 27.4388 14.2263C27.3392 14.2789 27.0092 14.3939 26.8562 14.4293C26.7939 14.4438 26.6774 14.4861 26.5973 14.5234C26.5172 14.5607 26.4225 14.592 26.3869 14.593C26.3513 14.5939 26.2947 14.6154 26.2612 14.6406C26.2277 14.6659 26.1185 14.7032 26.0185 14.7236C25.9185 14.744 25.8211 14.7733 25.8021 14.7886C25.7831 14.8039 25.6884 14.8327 25.5917 14.8527C25.495 14.8728 25.3832 14.9097 25.3433 14.9348C25.3034 14.9599 25.2015 14.9896 25.1168 15.0006C25.032 15.0116 24.9118 15.0456 24.8495 15.076C24.7872 15.1065 24.6604 15.1399 24.5677 15.1503C24.4751 15.1608 24.3649 15.1917 24.3229 15.2192C24.2809 15.2466 24.1747 15.2777 24.0868 15.2883C23.9989 15.2989 23.847 15.3339 23.749 15.366C23.6511 15.3982 23.4982 15.4349 23.4092 15.4478C23.3202 15.4606 23.211 15.4891 23.1665 15.5111C23.1219 15.5331 22.9981 15.5613 22.8913 15.5737C22.7845 15.586 22.6046 15.6242 22.4915 15.6584C22.3783 15.6925 22.2254 15.7208 22.1516 15.7212C22.0778 15.7217 21.9149 15.7492 21.7894 15.7825C21.6639 15.8156 21.46 15.8529 21.3363 15.8651C21.2125 15.8773 21.0384 15.9071 20.9494 15.9313C20.8604 15.9554 20.6007 15.9912 20.3723 16.0107C20.1439 16.0303 19.9202 16.0602 19.8752 16.0772C19.8302 16.0943 19.6384 16.1164 19.4489 16.1263C19.2595 16.1362 18.8496 16.1733 18.5381 16.2085C17.7583 16.2968 14.8279 16.3051 14.1363 16.2209C13.896 16.1917 13.4881 16.1545 13.23 16.1383C12.9719 16.122 12.6588 16.0875 12.5341 16.0616C12.4095 16.0356 12.137 15.9988 11.9285 15.9799C11.72 15.9609 11.5161 15.9328 11.4754 15.9175C11.4347 15.9021 11.2416 15.8715 11.0464 15.8494C10.851 15.8274 10.6344 15.7894 10.5648 15.7649C10.4953 15.7405 10.3916 15.7205 10.3344 15.7205C10.2772 15.7205 10.1151 15.6903 9.97431 15.6534C9.83351 15.6165 9.63818 15.5745 9.54028 15.5602C9.34317 15.5313 8.85986 15.4189 8.63402 15.3494C8.55391 15.3247 8.4026 15.2895 8.29782 15.2711C8.19303 15.2528 8.09059 15.2239 8.07012 15.207C8.04973 15.1902 7.94373 15.1621 7.83458 15.1445C7.72542 15.127 7.59466 15.0913 7.54393 15.0652C7.49327 15.0391 7.37918 15.0071 7.29042 14.994C7.20165 14.9809 7.07826 14.9432 7.0162 14.9103C6.95413 14.8773 6.86675 14.8501 6.822 14.8497C6.77725 14.8493 6.67854 14.821 6.60256 14.7866C6.52666 14.7524 6.41014 14.7148 6.34363 14.7032C6.27719 14.6916 6.19337 14.6639 6.15752 14.6416C6.12168 14.6193 6.04157 14.5907 5.97951 14.578C5.91744 14.5652 5.80845 14.5298 5.73725 14.4993C5.66604 14.4687 5.54224 14.4208 5.46213 14.3929C5.15344 14.2851 5.08588 14.2596 4.96046 14.2037C4.88925 14.172 4.79094 14.1361 4.7419 14.1241C4.69295 14.1121 4.59876 14.0748 4.53274 14.0413C4.46671 14.0078 4.39203 13.9804 4.36678 13.9804C4.34145 13.9804 4.27534 13.9529 4.21984 13.9194C4.16433 13.8859 4.07257 13.8487 4.01601 13.8367C3.95937 13.8249 3.8969 13.7958 3.87724 13.7722C3.85758 13.7486 3.78791 13.7193 3.72237 13.707C3.65691 13.6949 3.56636 13.6589 3.52129 13.6271C3.47614 13.5955 3.39288 13.5595 3.33632 13.5473C3.27968 13.5351 3.216 13.5043 3.1948 13.4788C3.1736 13.4534 3.14002 13.4326 3.12019 13.4326C3.10037 13.4326 3.01112 13.3981 2.92187 13.356C2.83262 13.3137 2.72314 13.2631 2.67864 13.2434C2.63414 13.2236 2.57588 13.1943 2.54917 13.1781C2.52247 13.1619 2.32933 13.0639 2.12 12.9603C1.50286 12.6549 1.23316 12.5151 1.18559 12.4757C1.16099 12.4554 1.10151 12.4289 1.05337 12.4169C1.00522 12.4049 0.94826 12.3739 0.926656 12.3481C0.905132 12.3222 0.842585 12.2795 0.787805 12.2533C0.732944 12.227 0.608658 12.1627 0.511478 12.1102C0.276338 11.983 0.179563 11.9858 0.0747772 12.1225Z" transform="translate(4 12)" fill="url(#paint1_linear_amazon-icon-circle-wcjecoxb3k)"></path><defs><linearGradient id="paint0_linear_amazon-icon-circle-wcjecoxb3k" x2="1" gradientUnits="userSpaceOnUse" gradientTransform="translate(-1.41486e-06 40) scale(40) rotate(-90)"><stop></stop><stop offset="1" stop-color="#262E40"></stop></linearGradient><linearGradient id="paint1_linear_amazon-icon-circle-wcjecoxb3k" x2="1" gradientUnits="userSpaceOnUse" gradientTransform="translate(-4.70862e-07 -18.5556) scale(32 55.1111)"><stop stop-color="#2B83BE"></stop><stop offset="1" stop-color="#58C2EB"></stop></linearGradient></defs></svg>
