<svg width="36" height="36" viewBox="0 0 80 80"><circle cx="40" cy="40" r="40" fill="#000000"></circle><path d="M67.3882 22H55.6279V28.8807H67.3882V22Z" fill="#40AB5D"></path><path d="M67.3882 31.54H55.6279V38.4207H67.3882V31.54Z" fill="url(#paint0_linear-612rf41tsph)"></path><path d="M67.3882 41.0791H55.6279V47.9598H67.3882V41.0791Z" fill="url(#paint1_linear-612rf41tsph)"></path><path d="M24.7602 50.6191H13V57.4998H24.7602V50.6191Z" fill="url(#paint2_linear-612rf41tsph)"></path><path d="M38.9604 50.6191H27.2002V57.4998H38.9604V50.6191Z" fill="url(#paint3_linear-612rf41tsph)"></path><path d="M53.188 50.6191H41.4277V57.4998H53.188V50.6191Z" fill="url(#paint4_linear-612rf41tsph)"></path><path d="M67.3882 50.6191H55.6279V57.4998H67.3882V50.6191Z" fill="url(#paint5_linear-612rf41tsph)"></path><path d="M53.188 41.0791H41.4277V47.9598H53.188V41.0791Z" fill="url(#paint6_linear-612rf41tsph)"></path><path d="M38.9604 41.0791H27.2002V47.9598H38.9604V41.0791Z" fill="url(#paint7_linear-612rf41tsph)"></path><path d="M38.9604 31.54H27.2002V38.4207H38.9604V31.54Z" fill="url(#paint8_linear-612rf41tsph)"></path><defs><linearGradient id="paint0_linear-612rf41tsph" x1="61.5656" y1="38.4802" x2="61.4551" y2="31.439" gradientUnits="userSpaceOnUse"><stop stop-color="#358C7B"></stop><stop offset="0.5256" stop-color="#33A65E"></stop></linearGradient><linearGradient id="paint1_linear-612rf41tsph" x1="55.455" y1="47.6065" x2="67.5664" y2="41.4354" gradientUnits="userSpaceOnUse"><stop stop-color="#222B90"></stop><stop offset="1" stop-color="#367B99"></stop></linearGradient><linearGradient id="paint2_linear-612rf41tsph" x1="13.0022" y1="54.0622" x2="24.7525" y2="54.0622" gradientUnits="userSpaceOnUse"><stop stop-color="#FF9900"></stop><stop offset="1" stop-color="#FF8000"></stop></linearGradient><linearGradient id="paint3_linear-612rf41tsph" x1="27.2133" y1="54.0622" x2="38.9637" y2="54.0622" gradientUnits="userSpaceOnUse"><stop stop-color="#FF8000"></stop><stop offset="1" stop-color="#CC1953"></stop></linearGradient><linearGradient id="paint4_linear-612rf41tsph" x1="41.4244" y1="54.0622" x2="53.1748" y2="54.0622" gradientUnits="userSpaceOnUse"><stop stop-color="#CC1953"></stop><stop offset="1" stop-color="#241284"></stop></linearGradient><linearGradient id="paint5_linear-612rf41tsph" x1="55.6216" y1="54.0622" x2="67.372" y2="54.0622" gradientUnits="userSpaceOnUse"><stop stop-color="#222B90"></stop><stop offset="1" stop-color="#3559A6"></stop></linearGradient><linearGradient id="paint6_linear-612rf41tsph" x1="40.9606" y1="46.3746" x2="53.6386" y2="42.6673" gradientUnits="userSpaceOnUse"><stop stop-color="#CC1953"></stop><stop offset="1" stop-color="#241284"></stop></linearGradient><linearGradient id="paint7_linear-612rf41tsph" x1="26.7951" y1="42.2303" x2="39.3819" y2="46.8116" gradientUnits="userSpaceOnUse"><stop offset="0.00266984" stop-color="#FFCC00"></stop><stop offset="0.9999" stop-color="#CE1938"></stop></linearGradient><linearGradient id="paint8_linear-612rf41tsph" x1="28.2009" y1="30.4707" x2="37.976" y2="39.4908" gradientUnits="userSpaceOnUse"><stop offset="0.00266984" stop-color="#FFD100"></stop><stop offset="1" stop-color="#FD5A22"></stop></linearGradient></defs></svg>
