<svg width="36" height="36" viewBox="0 0 40 40"><path d="M40 19.9998C40 15.3727 38.3955 10.8888 35.4601 7.31203C32.5247 3.73526 28.4399 1.28696 23.9017 0.384294C19.3635 -0.518371 14.6527 0.180446 10.5719 2.36168C6.49121 4.5429 3.29304 8.07159 1.52236 12.3465C-0.248326 16.6214 -0.481969 21.378 0.861239 25.8058C2.20445 30.2337 5.0414 34.0588 8.88871 36.6294C12.736 39.2001 17.3557 40.3572 21.9605 39.9036C26.5653 39.4501 30.8704 37.4139 34.1422 34.142C35.9994 32.2848 37.4726 30.08 38.4776 27.6535C39.4827 25.227 40 22.6263 40 19.9998Z" fill="#F3F2FA"></path><path d="M0.401529 0C0.100382 0.301147 0 0.803059 0 1.40535V23.5899C0 24.1922 0.200765 24.6941 0.501912 24.9952L0.602295 25.0956L13.0497 12.6482V12.4474L0.401529 0Z" transform="translate(11 7.35449)" fill="url(#paint0_linear_google-store-icon-circle-42pw5lu5axi)"></path><path d="M4.11568 8.5325L-3.82928e-07 4.41682V4.11568L4.11568 1.91464e-07L4.21606 0.100382L9.1348 2.91109C10.5401 3.71415 10.5401 5.01912 9.1348 5.82218L4.11568 8.5325Z" transform="translate(23.9493 15.686)" fill="url(#paint1_linear_google-store-icon-circle-42pw5lu5axi)"></path><path d="M16.7639 4.21606L12.5478 0L-3.82928e-07 12.5478C0.501911 13.0497 1.20459 13.0497 2.10803 12.6482L16.7639 4.21606Z" transform="translate(11.4016 19.9023)" fill="url(#paint2_linear_google-store-icon-circle-42pw5lu5axi)"></path><path d="M16.7639 8.66172L2.10803 0.329982C1.20459 -0.17193 0.501911 -0.0715473 -3.82928e-07 0.430365L12.5478 12.8778L16.7639 8.66172Z" transform="translate(11.4016 7.02393)" fill="url(#paint3_linear_google-store-icon-circle-42pw5lu5axi)"></path><path opacity="0.2" d="M16.6635 3.82928e-07L2.10803 8.23135C1.30497 8.73326 0.602294 8.63288 0.100382 8.23135L-3.82928e-07 8.33174L0.100382 8.43212C0.602294 8.83365 1.30497 8.93403 2.10803 8.43212L16.6635 3.82928e-07Z" transform="translate(11.4016 24.0176)" fill="black"></path><path opacity="0.2" d="M0.401529 12.347C0.100382 12.0459 0 11.544 0 10.9417V11.0421C0 11.6444 0.200765 12.1463 0.501912 12.4474V12.347H0.401529ZM22.0841 1.30497L17.065 4.11568L17.1654 4.21606L22.0841 1.40535C22.7868 1.00382 23.0879 0.501912 23.0879 0C23.0879 0.501912 22.6864 0.903441 22.0841 1.30497Z" transform="translate(11 19.9023)" fill="black"></path><path opacity="0.2" d="M2.50956 0.454541L22.0841 11.597C22.6864 11.9985 23.0879 12.4 23.0879 12.902C23.0879 12.4 22.7868 11.8981 22.0841 11.4966L2.50956 0.354158C1.10421 -0.448901 0 0.153393 0 1.75951V1.85989C0 0.354158 1.10421 -0.348518 2.50956 0.454541Z" transform="translate(11 7)" fill="white"></path><defs><linearGradient id="paint0_linear_google-store-icon-circle-42pw5lu5axi" x2="1" gradientUnits="userSpaceOnUse" gradientTransform="translate(3.42204 -7.20896) scale(-23.8248 23.8248) rotate(44.9983)"><stop stop-color="#00A0FF"></stop><stop offset="0.007" stop-color="#00A1FF"></stop><stop offset="0.26" stop-color="#00BEFF"></stop><stop offset="0.512" stop-color="#00D2FF"></stop><stop offset="0.76" stop-color="#00DFFF"></stop><stop offset="1" stop-color="#00E3FF"></stop></linearGradient><linearGradient id="paint1_linear_google-store-icon-circle-42pw5lu5axi" x2="1" gradientUnits="userSpaceOnUse" gradientTransform="translate(10.9758 -7.9277) scale(-24.2895 24.2895)"><stop stop-color="#FFE000"></stop><stop offset="0.409" stop-color="#FFBD00"></stop><stop offset="0.775" stop-color="#FFA500"></stop><stop offset="1" stop-color="#FF9C00"></stop></linearGradient><linearGradient id="paint2_linear_google-store-icon-circle-42pw5lu5axi" x2="1" gradientUnits="userSpaceOnUse" gradientTransform="translate(3.05965 -9.11773) scale(-32.3077 32.3077) rotate(45)"><stop stop-color="#FF3A44"></stop><stop offset="1" stop-color="#C31162"></stop></linearGradient><linearGradient id="paint3_linear_google-store-icon-circle-42pw5lu5axi" x2="1" gradientUnits="userSpaceOnUse" gradientTransform="translate(-8.2158 -1.92109) scale(14.4276 -14.4276) rotate(-45)"><stop stop-color="#32A071"></stop><stop offset="0.069" stop-color="#2DA771"></stop><stop offset="0.476" stop-color="#15CF74"></stop><stop offset="0.801" stop-color="#06E775"></stop><stop offset="1" stop-color="#00F076"></stop></linearGradient></defs></svg>
