<svg width="36" height="36" viewBox="0 0 45 45"><defs><style>.itunes-icon-star-circle-1{fill:url(#linear-gradient-itunes-circle-icon-k55ftrq1m1i);}.itunes-icon-star-circle-2{fill:#fff;opacity:0.86;}</style><linearGradient id="linear-gradient-itunes-circle-icon-k55ftrq1m1i" x1="427.16" y1="46.08" x2="427.16" y2="1.08" gradientUnits="userSpaceOnUse"><stop offset="0" stop-color="#cb44f5"></stop><stop offset="1" stop-color="#eb4cbd"></stop></linearGradient></defs><title>itunes_circle NEW</title><path class="itunes-icon-star-circle-1" d="M449.66,23.58a22.5,22.5,0,1,0-6.59,15.91A22.5,22.5,0,0,0,449.66,23.58Z" transform="translate(-404.66 -1.08)"></path><path class="itunes-icon-star-circle-2" d="M426.31,8,417.4,36.14a.63.63,0,0,0,1,.71l8.53-6.16,8.53,6.16a.63.63,0,0,0,1-.71L427.47,8A.61.61,0,0,0,426.31,8Z" transform="translate(-404.66 -1.08)"></path><path class="itunes-icon-star-circle-2" d="M426.89,30.68l15.27-11.16a.68.68,0,0,0-.4-1.23H412a.68.68,0,0,0-.4,1.23Z" transform="translate(-404.66 -1.08)"></path></svg>
