<svg width="36" height="36" xmlns="http://www.w3.org/2000/svg"><g fill="none" fill-rule="evenodd"><circle fill="#2787F5" cx="18" cy="18" r="18"/><path d="M29.698 12.24c.17-.57 0-.99-.816-.99h-2.695c-.687 0-1.002.362-1.173.762 0 0-1.371 3.34-3.313 5.509-.628.627-.913.828-1.255.828-.172 0-.42-.2-.42-.77V12.24c0-.685-.199-.99-.77-.99H15.02c-.428 0-.686.318-.686.619 0 .65.972.799 1.072 2.626v3.967c0 .87-.158 1.027-.5 1.027-.914 0-3.137-3.353-4.456-7.192-.257-.745-.516-1.047-1.205-1.047H6.55c-.77 0-.924.362-.924.762 0 .714.913 4.252 4.255 8.933 2.227 3.197 5.366 4.93 8.221 4.93 1.713 0 1.924-.385 1.924-1.047V22.41c0-.77.163-.922.705-.922.4 0 1.086.199 2.685 1.74 1.828 1.828 2.13 2.647 3.158 2.647h2.695c.77 0 1.155-.385.934-1.144-.243-.757-1.116-1.856-2.274-3.158-.629-.742-1.57-1.541-1.856-1.94-.4-.514-.286-.743 0-1.199 0 0 3.284-4.624 3.627-6.194h-.001z" fill="#FFF"/></g></svg>
